<svg xmlns="http://www.w3.org/2000/svg" width="16.313" height="17.889" viewBox="0 0 16.313 17.889">
  <g id="bell-55" transform="translate(0.5 0.5)">
    <path id="Shape" d="M0,0V.113A2.283,2.283,0,0,0,2.308,2.421,2.283,2.283,0,0,0,4.616.113V0" transform="translate(5.348 14.468)" fill="none" stroke="#c92026" stroke-miterlimit="10" stroke-width="1"/>
    <path id="Shape-2" data-name="Shape" d="M13.286,7.881V5.573A5.749,5.749,0,0,0,7.656,0a5.8,5.8,0,0,0-5.63,5.63V7.881C2.027,10.415,0,10.865,0,12.273c0,1.295,2.984,2.308,7.656,2.308s7.656-1.013,7.656-2.308C15.313,10.865,13.286,10.415,13.286,7.881Z" fill="none" stroke="#c92026" stroke-linecap="square" stroke-miterlimit="10" stroke-width="1"/>
  </g>
</svg>
