<svg xmlns="http://www.w3.org/2000/svg" width="16" height="14" viewBox="0 0 16 14">
  <g id="coupon" transform="translate(0.5 0.5)">
    <path id="Shape" d="M0,0H5" transform="translate(5 4)" fill="none" stroke="#c92026" stroke-linecap="round" stroke-linejoin="round" stroke-miterlimit="10" stroke-width="1"/>
    <path id="Shape-2" data-name="Shape" d="M0,0H5" transform="translate(5 9)" fill="none" stroke="#c92026" stroke-linecap="round" stroke-linejoin="round" stroke-miterlimit="10" stroke-width="1"/>
    <path id="Shape-3" data-name="Shape" d="M13,7a2,2,0,0,1,2-2V1a1,1,0,0,0-1-1H1A1,1,0,0,0,0,1V4.5a2,2,0,0,1,0,4V12a1,1,0,0,0,1,1H14a1,1,0,0,0,1-1V9A2,2,0,0,1,13,7Z" fill="none" stroke="#c92026" stroke-linecap="round" stroke-linejoin="round" stroke-miterlimit="10" stroke-width="1"/>
  </g>
</svg>
