<svg xmlns="http://www.w3.org/2000/svg" width="24.092" height="31.68" viewBox="0 0 24.092 31.68">
  <g id="Mark" transform="translate(-0.252 -0.196)">
    <path id="Fill_4" data-name="Fill 4" d="M1.852,0A1.852,1.852,0,1,1,0,1.852,1.852,1.852,0,0,1,1.852,0" transform="translate(6.599 0.196)" fill="#f7e3d1"/>
    <path id="Fill_6" data-name="Fill 6" d="M1.852,0A1.852,1.852,0,1,1,0,1.852,1.852,1.852,0,0,1,1.852,0" transform="translate(14.01 0.196)" fill="#f7e3d1"/>
    <path id="Fill_8" data-name="Fill 8" d="M18.272,10.118A12.063,12.063,0,0,1,15.5,11.375a11.879,11.879,0,0,1-1.558.369,12.112,12.112,0,0,1-2.033.17A12.173,12.173,0,0,1,1.289,5.707,12.02,12.02,0,0,1,0,2.33,11.766,11.766,0,0,1,1.08,1.252,11.964,11.964,0,0,1,2.772,0a9.069,9.069,0,0,0,.123,1.252,8.994,8.994,0,0,0,.568,1.975A9.149,9.149,0,0,0,9.6,8.573a9.153,9.153,0,0,0,2.307.294A9.124,9.124,0,0,0,13.94,8.64a9.109,9.109,0,0,0,3.642-1.748c.035.079.066.16.1.242a8.9,8.9,0,0,1,.446,1.593,9.03,9.03,0,0,1,.148,1.392" transform="translate(0.252 18.709)" fill="#f7e3d1"/>
    <path id="Fill_10" data-name="Fill 10" d="M16.5,25.623h0a3.044,3.044,0,0,1-.418-.029,9.122,9.122,0,0,0,.42-2.748c0-.1,0-.189,0-.272a9,9,0,0,0-.149-1.392,8.876,8.876,0,0,0-.445-1.593c-.028-.076-.059-.155-.1-.241a9.043,9.043,0,0,0-.8-1.507,9.226,9.226,0,0,0-2.846-2.772,8.92,8.92,0,0,0-1.72-.828,9.048,9.048,0,0,0-2.964-.534H5.76a6.079,6.079,0,0,1-3.924-1.724,6.262,6.262,0,0,1-.773-.92C.971,10.931.89,10.8.815,10.67A6.1,6.1,0,0,1,1.838,3.263l.009-.008.014-.013c.113-.106.233-.214.356-.319l.007-.006L2.244,2.9A12.183,12.183,0,0,1,19.27,20.245a11.928,11.928,0,0,1,.27,2.119.058.058,0,0,1,0,.012v.008c0,.075.005.149.007.223A3.05,3.05,0,0,1,16.5,25.623ZM10.113,3.047A9.136,9.136,0,0,0,4.155,5.274c-.036.03-.07.06-.1.091l0,0-.006.006-.006.005a3.045,3.045,0,0,0,2.059,5.29h1.76a12.051,12.051,0,0,1,2.336.32c.275.064.553.14.824.226a12.146,12.146,0,0,1,4.41,2.491,12.158,12.158,0,0,1,2.561,3.158c.11-.185.192-.332.265-.476a9.005,9.005,0,0,0,.9-2.682,9.216,9.216,0,0,0,0-3.037,9.127,9.127,0,0,0-9.014-7.624Z" transform="translate(2.024 6.253)" fill="#f7e3d1"/>
    <path id="Fill_12" data-name="Fill 12" d="M.49,0a9,9,0,0,1,.691,3.226A9.448,9.448,0,0,1,0,3.866,5.468,5.468,0,0,0,.49,0" transform="translate(17.344 25.601)" fill="#704b43"/>
  </g>
</svg>
