<svg xmlns="http://www.w3.org/2000/svg" width="17.875" height="17.875" viewBox="0 0 17.875 17.875">
  <g id="multiple-11" transform="translate(0.5 0.5)">
    <rect id="Rectangle-path" width="3.375" height="3.375" rx="1.5" transform="translate(1.125 2.25)" fill="none" stroke="#c92026" stroke-linecap="round" stroke-linejoin="round" stroke-miterlimit="10" stroke-width="1"/>
    <path id="Shape" d="M3.375,7.875H1.125V4.5H0V1.125A1.125,1.125,0,0,1,1.125,0H2.25" transform="translate(0 7.875)" fill="none" stroke="#c92026" stroke-linecap="round" stroke-linejoin="round" stroke-miterlimit="10" stroke-width="1"/>
    <rect id="Rectangle-path-2" data-name="Rectangle-path" width="3.375" height="3.375" rx="1.5" transform="translate(15.75 5.625) rotate(180)" fill="none" stroke="#c92026" stroke-linecap="round" stroke-linejoin="round" stroke-miterlimit="10" stroke-width="1"/>
    <path id="Shape-2" data-name="Shape" d="M0,7.875H2.25V4.5H3.375V1.125A1.125,1.125,0,0,0,2.25,0H1.125" transform="translate(13.5 7.875)" fill="none" stroke="#c92026" stroke-linecap="round" stroke-linejoin="round" stroke-miterlimit="10" stroke-width="1"/>
    <rect id="Rectangle-path-3" data-name="Rectangle-path" width="4.5" height="4.5" rx="2" transform="translate(6.188)" fill="none" stroke="#c92026" stroke-linecap="round" stroke-linejoin="round" stroke-miterlimit="10" stroke-width="1"/>
    <path id="Shape-3" data-name="Shape" d="M6.75,10.125H1.125v-4.5H0V2.25A2.25,2.25,0,0,1,2.25,0H5.625a2.25,2.25,0,0,1,2.25,2.25V5.625H6.75Z" transform="translate(4.5 6.75)" fill="none" stroke="#c92026" stroke-linecap="round" stroke-linejoin="round" stroke-miterlimit="10" stroke-width="1"/>
  </g>
</svg>
